<?xml version="1.0" encoding="utf-8"?>
<!-- Generator: Adobe Illustrator 23.0.5, SVG Export Plug-In . SVG Version: 6.00 Build 0)  -->
<svg version="1.1" id="Layer_1" xmlns="http://www.w3.org/2000/svg" xmlns:xlink="http://www.w3.org/1999/xlink" x="0px" y="0px"
	 viewBox="0 0 500 500" style="enable-background:new 0 0 500 500;" xml:space="preserve">
<style type="text/css">
	.st0{display:none;fill:#DFF3FC;}
	.st1{fill:#A2C7EB;}
	.st2{fill:none;stroke:#A2C7EB;stroke-miterlimit:10;}
	.st3{fill:#0097D8;stroke:#0097D8;stroke-miterlimit:10;}
	.st4{fill:#FFFFFF;}
	.st5{fill:#0097D8;}
	.st6{fill:none;stroke:#6F8BBF;stroke-linecap:round;stroke-miterlimit:10;}
	.st7{fill:#E06A58;}
	.st8{fill:#F2AE30;}
	.st9{fill:#0A2240;}
	.st10{fill:#F9A07B;}
	.st11{fill:#FFC73C;}
	.st12{fill:#FFBB33;}
	.st13{fill:#FCE172;}
	.st14{fill:#325F73;}
	.st15{fill:#0B2D50;}
	.st16{fill:#3C738C;}
	.st17{fill:#56C4F9;}
	.st18{fill:#225570;}
	.st19{fill:none;stroke:#0B2D50;stroke-width:2;stroke-linecap:round;stroke-miterlimit:10;}
	.st20{fill:none;stroke:#CC454E;stroke-width:2;stroke-linecap:round;stroke-miterlimit:10;}
	.st21{fill:#262D40;}
	.st22{fill:#CC454E;}
	.st23{fill:#E8729B;}
	.st24{fill:#3D86E0;}
	.st25{fill:#3A92C9;}
	.st26{fill:none;stroke:#3A92C9;stroke-width:2;stroke-linecap:round;stroke-miterlimit:10;}
	.st27{fill:none;stroke:#CC454E;stroke-linecap:round;stroke-miterlimit:10;}
	.st28{fill:none;stroke:#F2AE30;stroke-linecap:round;stroke-miterlimit:10;}
</style>
<g id="OBJECTS">
	<g id="XMLID_163_">
		<g id="XMLID_329_">
			<path id="XMLID_110_" class="st0" d="M430.5,409.6c47.5-36.1,68.6-136.2-8.5-185.3c-51-32.5-82.8-14-140.2-35.5
				c-70.1-26.2-80.6-105.5-165.8-66.5c-45.2,20.7-76.5,78.9-82,145.1C28.6,332.1,51.6,376.6,98.5,407
				C208.7,411.7,319.2,410.9,430.5,409.6z"/>
			<path id="XMLID_109_" class="st0" d="M235.4,124.8c-7.2,28.8,19.5,57.3,47.5,69.1c28.1,11.8,60.2,10.4,90.3,4.8
				c13-2.4,26.3-5.9,36.4-14.1c10.1-8.3,15.9-22.6,10.4-34.2c-4.9-10.2-16.7-15.5-28.1-18.2s-23.3-3.8-33.4-9.4
				c-9.6-5.4-16.3-14.3-24.6-21.3c-15.4-13-36.9-19.4-56.9-15.3C257.1,90.2,241.5,100.3,235.4,124.8z"/>
		</g>
		<g id="XMLID_162_">
			<g id="XMLID_160_">
				<g id="XMLID_27_">
					<path id="XMLID_155_" class="st1" d="M450.3,257.2v-21.8H442c-1-3.8-2.5-7.4-4.4-10.7l5.8-5.9L428,203.5l-5.9,5.8
						c-3.3-1.9-6.9-3.4-10.7-4.4v-8.3h-21.8v8.3c-3.8,1-7.4,2.5-10.7,4.4l-5.9-5.8l-15.4,15.4l5.8,5.9c-1.9,3.3-3.4,6.9-4.4,10.7
						h-8.3v21.8h8.3c1,3.8,2.5,7.4,4.4,10.7l-5.8,5.9l15.4,15.4l5.9-5.8c3.3,1.9,6.9,3.4,10.7,4.4v8.3h21.8v-8.3
						c3.8-1,7.4-2.5,10.7-4.4l5.9,5.8l15.4-15.4l-5.8-5.9c1.9-3.3,3.5-6.9,4.4-10.7H450.3z M400.6,265.2c-10.4,0-18.9-8.5-18.9-18.9
						c0-10.4,8.5-18.9,18.9-18.9c10.4,0,18.9,8.5,18.9,18.9C419.4,256.8,411,265.2,400.6,265.2z"/>
					<path id="XMLID_66_" class="st2" d="M384.5,311.8l-4.1-10.8l-4.1,1.6c-1.2-1.7-2.6-3.2-4.2-4.5l1.8-4l-10.6-4.7l-1.8,4
						c-2-0.3-4.1-0.4-6.2-0.2l-1.6-4.1l-10.8,4.1l1.6,4.1c-1.7,1.2-3.2,2.6-4.5,4.2l-4-1.8l-4.7,10.6l4,1.8c-0.3,2-0.4,4.1-0.2,6.2
						l-4.1,1.6l4.1,10.8l4.1-1.6c1.2,1.7,2.6,3.2,4.2,4.5l-1.8,4l10.6,4.7l1.8-4c2,0.3,4.1,0.4,6.2,0.2l1.6,4.1l10.8-4.1l-1.6-4.1
						c1.7-1.2,3.2-2.6,4.5-4.2l4,1.8l4.7-10.6l-4-1.8c0.3-2,0.4-4.1,0.2-6.2L384.5,311.8z M361.3,325.2c-5.2,2-11-0.6-13-5.8
						c-2-5.2,0.6-11,5.8-13c5.2-2,11,0.6,12.9,5.8C369.1,317.5,366.5,323.3,361.3,325.2z"/>
					<path id="XMLID_69_" class="st2" d="M349.1,273.9l-2.8-7.3l-2.8,1.1c-0.8-1.1-1.8-2.2-2.9-3l1.2-2.7l-7.1-3.2l-1.2,2.7
						c-1.4-0.2-2.8-0.3-4.2-0.1l-1.1-2.8l-7.3,2.8l1.1,2.8c-1.1,0.8-2.2,1.8-3,2.9l-2.7-1.2l-3.2,7.1l2.7,1.2
						c-0.2,1.4-0.3,2.8-0.1,4.2l-2.8,1.1l2.8,7.3l2.8-1.1c0.8,1.1,1.8,2.2,2.9,3l-1.2,2.7l7.1,3.2l1.2-2.7c1.4,0.2,2.8,0.3,4.2,0.1
						l1.1,2.8l7.3-2.8l-1.1-2.8c1.1-0.8,2.2-1.8,3-2.9l2.7,1.2l3.2-7.1l-2.7-1.2c0.2-1.4,0.3-2.8,0.1-4.2L349.1,273.9z M333.4,283
						c-3.5,1.3-7.4-0.4-8.8-3.9c-1.3-3.5,0.4-7.4,3.9-8.8c3.5-1.3,7.4,0.4,8.7,3.9C338.7,277.7,336.9,281.6,333.4,283z"/>
				</g>
				<g id="XMLID_29_">
					<path id="XMLID_30_" class="st3" d="M346.5,146.1c0,10.9-5.1,20.7-13.1,27c-5.9,4.7-13.3,7.4-21.3,7.4
						c-8.1,0-15.5-2.8-21.3-7.4c-8-6.3-13.1-16.1-13.1-27c0-19,15.4-34.4,34.4-34.4S346.5,127.1,346.5,146.1z"/>
					<g id="XMLID_31_">
						
							<ellipse id="XMLID_32_" transform="matrix(0.9925 -0.1225 0.1225 0.9925 -14.158 39.2452)" class="st4" cx="312.1" cy="134.8" rx="11.3" ry="11.3"/>
						<path id="XMLID_33_" class="st4" d="M333.4,168.8c-5.9,4.7-13.3,7.4-21.3,7.4c-8.1,0-15.5-2.8-21.3-7.4
							c2.2-9.7,4.2-18.1,6.3-20.2c3-3,10.9-4.7,15-4.7s12.4,2.1,13.9,3.6C329.1,150.6,331.8,159.2,333.4,168.8z"/>
					</g>
				</g>
				<g id="XMLID_34_">
					<g id="XMLID_35_">
						<path id="XMLID_36_" class="st5" d="M262.6,231v-17c0-4.6,3.8-8.4,8.4-8.4h53.6c4.6,0,8.4,3.8,8.4,8.4v17
							c0,4.6-3.8,8.4-8.4,8.4H271C266.4,239.4,262.6,235.6,262.6,231z"/>
						<polyline id="XMLID_37_" class="st5" points="285.2,230.1 259.3,255.3 301.3,234.1 						"/>
					</g>
					<g id="XMLID_38_">
						<path id="XMLID_39_" class="st4" d="M269.1,213.5L269.1,213.5c0-0.8,0.6-1.3,1.3-1.3h26.5c0.7,0,1.3,0.6,1.3,1.3v0.1
							c0,0.7-0.6,1.3-1.3,1.3h-26.5C269.7,214.8,269.1,214.2,269.1,213.5z"/>
						<path id="XMLID_40_" class="st4" d="M299.3,213.5L299.3,213.5c0-0.8,0.6-1.3,1.3-1.3h23.1c0.7,0,1.3,0.6,1.3,1.3v0.1
							c0,0.7-0.6,1.3-1.3,1.3h-23.1C299.8,214.8,299.3,214.2,299.3,213.5z"/>
						<path id="XMLID_41_" class="st4" d="M289.2,219.2L289.2,219.2c0-0.8,0.6-1.3,1.3-1.3h33.2c0.7,0,1.3,0.6,1.3,1.3v0.1
							c0,0.7-0.6,1.3-1.3,1.3h-33.2C289.8,220.5,289.2,219.9,289.2,219.2z"/>
						<path id="XMLID_42_" class="st4" d="M269.1,219.2L269.1,219.2c0-0.8,0.6-1.3,1.3-1.3h14.8c0.7,0,1.3,0.6,1.3,1.3v0.1
							c0,0.7-0.6,1.3-1.3,1.3h-14.8C269.7,220.5,269.1,219.9,269.1,219.2z"/>
						<path id="XMLID_43_" class="st4" d="M293.8,224.9L293.8,224.9c0-0.8,0.6-1.3,1.3-1.3h28.6c0.7,0,1.3,0.6,1.3,1.3v0.1
							c0,0.7-0.6,1.3-1.3,1.3H295C294.4,226.2,293.8,225.6,293.8,224.9z"/>
						<path id="XMLID_44_" class="st4" d="M269.1,224.9L269.1,224.9c0-0.8,0.6-1.3,1.3-1.3h19.8c0.7,0,1.3,0.6,1.3,1.3v0.1
							c0,0.7-0.6,1.3-1.3,1.3h-19.8C269.7,226.2,269.1,225.6,269.1,224.9z"/>
						<path id="XMLID_45_" class="st4" d="M269.1,230.6L269.1,230.6c0-0.8,0.6-1.3,1.3-1.3h7.3c0.7,0,1.3,0.6,1.3,1.3v0.1
							c0,0.7-0.6,1.3-1.3,1.3h-7.3C269.7,231.9,269.1,231.3,269.1,230.6z"/>
						<path id="XMLID_46_" class="st4" d="M281.5,230.6L281.5,230.6c0-0.8,0.6-1.3,1.3-1.3h40.9c0.7,0,1.3,0.6,1.3,1.3v0.1
							c0,0.7-0.6,1.3-1.3,1.3h-40.9C282.1,231.9,281.5,231.3,281.5,230.6z"/>
					</g>
				</g>
				<g id="XMLID_25_">
					<g id="XMLID_24_">
						<ellipse id="XMLID_28_" class="st5" cx="100.4" cy="192.9" rx="33.1" ry="33.1"/>
						<g id="XMLID_20_">
							<g id="XMLID_18_">
								<ellipse id="XMLID_1_" class="st4" cx="92.6" cy="209.2" rx="8" ry="8"/>
								<polygon id="XMLID_17_" class="st5" points="88.3,212.1 88,207 92.2,204.1 96.8,206.3 97.2,211.4 93,214.3 								"/>
							</g>
							<g id="XMLID_21_">
								<ellipse id="XMLID_23_" class="st4" cx="108.2" cy="176.7" rx="8" ry="8"/>
								<polygon id="XMLID_22_" class="st5" points="104.2,179.1 104.5,172.6 109.3,168.3 113.9,170.5 113.7,177 108.8,181.3 
																	"/>
							</g>
							<path id="XMLID_19_" class="st4" d="M98.1,205.5l-6.1-2.9l4.5-10.5c0.3-0.7,0.6-1.3,0.9-2l5.3-10.1l6.1,2.9l-4.4,10.3
								c-0.3,0.8-0.7,1.6-1.1,2.3L98.1,205.5z"/>
						</g>
					</g>
					<path id="XMLID_26_" class="st5" d="M123.4,210.7c1.2-0.5,20.2,0.3,20.2,0.3l-13.7-12.6L123.4,210.7z"/>
				</g>
				<g id="XMLID_159_">
					<g id="XMLID_74_">
						<g id="XMLID_157_">
							<ellipse id="XMLID_166_" class="st5" cx="177.4" cy="124" rx="32.6" ry="32.6"/>
						</g>
					</g>
					<g id="XMLID_158_">
						<rect id="XMLID_72_" x="176.3" y="96.2" class="st4" width="2.2" height="27.3"/>
						
							<rect id="XMLID_73_" x="151.5" y="131.3" transform="matrix(0.8222 -0.5691 0.5691 0.8222 -45.9478 117.6374)" class="st4" width="27.7" height="2.2"/>
						<path id="XMLID_156_" class="st4" d="M180.4,124c0,1.7-1.3,3-3,3s-3-1.3-3-3s1.3-3,3-3C179,121,180.4,122.3,180.4,124z"/>
					</g>
				</g>
			</g>
			<g id="XMLID_161_">
				<g id="XMLID_231_">
					<g id="XMLID_5_">
						<g id="XMLID_6_">
							<path id="XMLID_108_" class="st1" d="M265.7,344.4c-1.9-29.8,11.1-60.6,33-78.2C299.4,296.1,286.5,326.4,265.7,344.4z"/>
							<path id="XMLID_107_" class="st6" d="M295.2,274.2c-9.2,17.2-17.2,35.2-23.9,53.8c-8.1,22.6-14.4,46.5-28.2,65.5"/>
						</g>
						<g id="XMLID_7_">
							<path id="XMLID_106_" class="st1" d="M258.8,363.1c11.1-24.8,33.1-43.6,57.4-48.9C305.9,340.8,282.6,361.1,258.8,363.1z"/>
							<path id="XMLID_105_" class="st6" d="M310.3,319.7c-16.6,14.6-33.5,28.8-50.6,42.6"/>
						</g>
						<g id="XMLID_8_">
							<path id="XMLID_104_" class="st1" d="M252.3,384.8c14.8-22.1,42.2-33.7,64.8-27.4C300.5,379.2,273,390.8,252.3,384.8z"/>
							<path id="XMLID_103_" class="st6" d="M311.7,359c-19.4,12.2-40.4,21.1-62,26.5"/>
						</g>
						<g id="XMLID_9_">
							<path id="XMLID_102_" class="st1" d="M260.3,355.6c4.7-24.9-2.4-52.7-18.2-71.1C235.6,309,241.8,337.7,260.3,355.6z"/>
							<path id="XMLID_101_" class="st6" d="M243.7,290.8c3.1,23.2,8.7,44.9,17.3,66.2"/>
						</g>
						<g id="XMLID_10_">
							<path id="XMLID_100_" class="st1" d="M252.1,376.8c-2-25.6-15.2-49.7-34.4-63c1.1,13.6,4.7,26.7,10.4,38.6
								C234.8,366.1,244.5,374.7,252.1,376.8z"/>
							<path id="XMLID_99_" class="st6" d="M220.6,319c7.6,21.4,18.4,41.2,32,58.4"/>
						</g>
					</g>
					<g id="XMLID_11_">
						<g id="XMLID_12_">
							<path id="XMLID_98_" class="st1" d="M400.6,370.7c10.5-27.3,34.6-49.4,61.2-56.2C450.1,341.4,426.3,363.1,400.6,370.7z"/>
							<path id="XMLID_97_" class="st6" d="M455.4,320.2c-15.2,11.6-29.7,24.4-43.2,38.2c-16.4,16.8-31.8,35.6-51.8,46.8"/>
						</g>
						<g id="XMLID_13_">
							<path id="XMLID_96_" class="st1" d="M386.8,384.5c20-17.6,47.1-25.3,70.8-20.1C437.5,383.9,408.6,392.5,386.8,384.5z"/>
							<path id="XMLID_95_" class="st6" d="M450.1,366.9c-20.6,6.2-41.4,12-62.2,17.3"/>
						</g>
						<g id="XMLID_14_">
							<path id="XMLID_94_" class="st1" d="M372.1,401.1c22.2-13.7,51.1-12.8,68.5,2.1C417,415.9,388,415,372.1,401.1z"/>
							<path id="XMLID_93_" class="st6" d="M435.2,402.4c-22.2,2.9-44.4,2.3-65.7-1.7"/>
						</g>
						<g id="XMLID_15_">
							<path id="XMLID_92_" class="st1" d="M391.2,378.4c14.4-20.3,19.5-48,13.1-70.8C388.4,326.8,382.1,354.9,391.2,378.4z"/>
							<path id="XMLID_91_" class="st6" d="M403.1,314c-6.8,21.9-10.8,43.6-11.9,66"/>
						</g>
						<g id="XMLID_16_">
							<path id="XMLID_90_" class="st1" d="M375.3,394c8.7-23.7,7-50.5-4.6-70.2c-4.6,12.5-6.8,25.7-6.6,38.6
								C364.3,377.4,369.3,389,375.3,394z"/>
							<path id="XMLID_89_" class="st6" d="M371.1,329.7c-2.1,22.1-0.6,44.2,4.4,65.1"/>
						</g>
					</g>
					<g id="XMLID_112_">
						<path id="XMLID_88_" class="st1" d="M103.3,323c-10.7-32.7-40.5-59.1-75.3-66.6C42.6,284.6,69.1,307.2,103.3,323z"/>
						<path id="XMLID_87_" class="st1" d="M105.1,328.1c-23.4-13.2-52.8-16.2-78.2-7.8C50.5,332,78.4,335.3,105.1,328.1z"/>
						<path id="XMLID_86_" class="st1" d="M111.6,335.1c-25.3-3.5-51.8,2.7-72.4,17C62.5,360.7,90.5,355.2,111.6,335.1z"/>
						<path id="XMLID_85_" class="st1" d="M119.5,350.6c-25.1-0.1-49.7,11.8-64.5,31.2c11.2,2.2,23,0.9,33.2-3.7
							C98.5,373.4,107,365.5,119.5,350.6z"/>
						<path id="XMLID_84_" class="st1" d="M137.1,376.6c-24.7-4.2-51.1,3.4-68.9,20c10.6,4,22.6,4.7,33.4,1.8
							C112.6,395.5,122.4,389.2,137.1,376.6z"/>
						<path id="XMLID_83_" class="st1" d="M110.4,324.5c-16.3-22-20.8-51.7-11.5-76.9c7.1,12,13.2,24.7,16,38.2
							C117.9,299.3,117.3,313.6,110.4,324.5z"/>
						<path id="XMLID_82_" class="st1" d="M120.4,345.8c-3.9-23.4,4.1-48.2,21-65.1C143.4,304.9,136,329.5,120.4,345.8z"/>
						<g id="XMLID_113_">
							<path id="XMLID_81_" class="st6" d="M35.6,262.2c49.7,31.8,88.5,79.2,109.1,133"/>
							<path id="XMLID_80_" class="st6" d="M100.5,259.3c6,24.5,9.7,49.6,11,74.7"/>
							<path id="XMLID_79_" class="st6" d="M137.7,290.2c-2,19.8-8.1,39.1-17.9,56.6"/>
							<path id="XMLID_78_" class="st6" d="M37.3,320.8c22.8,4.3,45.9,6.7,69.1,7"/>
							<path id="XMLID_77_" class="st6" d="M51,350.2c21-1.5,41.7-6.6,60.8-15"/>
							<path id="XMLID_76_" class="st6" d="M63.6,378.3c19.4-9.7,38.8-19.3,58.1-29"/>
							<path id="XMLID_75_" class="st6" d="M76.2,395.3c25.3-4.9,32.8-10.7,60.9-18.8"/>
						</g>
					</g>
				</g>
				<g id="XMLID_4_">
					<g id="XMLID_47_">
						<path id="XMLID_65_" class="st7" d="M236.4,349c0,0,2.2,20.1,4.6,21.7c4.4,2.9,55.1,9.6,55.1,9.6l-1.7,13.2
							c0,0-69.4,6.2-72.4,2.8c-5.1-6-14.1-35.1-14.1-35.1L236.4,349z"/>
						<path id="XMLID_64_" class="st8" d="M202.9,297.3l5.6-13.5c0,0,15.2,7.1,20.2,16c5.4,9.4,11.9,59.6,11.9,59.6
							s-26.9,6.2-31.8,3.6C204,360.4,202.9,297.3,202.9,297.3z"/>
					</g>
					<path id="XMLID_63_" class="st9" d="M160.2,234.8c-3.9-1.4-8.1-2.7-12.3-2.4c-4.2,0.3-8.5,2.6-9.9,6.3c-1,2.6-0.6,5.7-2.2,8.1
						c-1.5,2.3-4.6,3.2-7.5,3.4c-2.9,0.2-5.8-0.2-8.6,0.2c-8.8,1.2-15.1,10.7-12.2,18.6c1.2,3.1,3.5,6.1,3,9.4
						c-0.6,3.5-4.2,5.8-5.7,9c-2,4.3,0.4,9.5,4.3,12.4c3.9,2.9,9,4,14,4.8c6.8,1,13.9,1.5,20.6,0.1s13.2-5,16.7-10.6
						c1.6-2.5,2.5-5.2,4.3-7.5c3.7-4.8,10.3-6.6,15.5-10c5.7-3.7,9.8-10.9,6.5-16.6c-3.2-5.4-11.6-6.6-15-12
						c-1.4-2.2-1.7-4.8-2.6-7.3C168.2,238.2,166,236.9,160.2,234.8z"/>
					<g id="XMLID_48_">
						<path id="XMLID_62_" class="st10" d="M183.1,301.4c1,1.1,2.2,2.4,3.8,2.5c1.7,0.1,3.1-1.1,4.2-2.3c5.7-6,9.4-13.4,10.9-21
							c-1.4-0.8-2.8-1.6-4-2.3c-1.1-0.7-2-1.6-2.5-2.7c-0.3-0.8-0.5-1.7-0.4-2.6c0.8-7.5,1.5-11.7,4.1-19.3
							c-12.5-2.8-24.4-6.2-31.2-11.9c-0.8,3.5-1.8,10.4-3.9,17.1c-2.2,7.2-5.7,14.3-11.6,17.4C164.3,283.2,174.6,291.7,183.1,301.4z
							"/>
						<path id="XMLID_61_" class="st7" d="M195.2,273.1c-0.1,0.9,0,1.8,0.4,2.6c-7.4,9-24-2.8-31.3-16.6c2.1-6.8,3.1-13.6,3.9-17.1
							c6.8,5.7,18.6,9.1,31.2,11.9C196.7,261.3,196,265.5,195.2,273.1z"/>
					</g>
					<g id="XMLID_49_">
						<path id="XMLID_60_" class="st11" d="M215.9,381.9c-1.6,10.9,10.1,22.5,10.4,28.4c-24.9,0-77,1.5-103.6-2.1
							c-1.2-6.7,11.9-21.8,11.9-36.6c0-2-0.1-4.1-0.2-6.5c-0.4-6.6-1.4-14.5-2.5-22.6c-3-21.7-6.9-45-4-49.8
							c5.7-9.4,19-15.8,25.6-18.5c2.3-0.9,3.8-1.5,3.9-1.5c8.3,14.1,25.2,26.2,31.5,25.7c1.8-0.1,7-2,10.5-19.4
							c1.4,0.8,2.7,1.5,4,2.2c6.6,3.4,12.8,6.3,14.6,10.7c4.7,11.6,9.3,40.9,8.3,51.3c-1,10.5-5.3,18.5-8.2,29.1
							c-0.7,2.5-1.3,5.1-1.8,7.9C216.1,380.5,216,381.2,215.9,381.9z"/>
						<path id="XMLID_59_" class="st12" d="M226.3,410.2c-24.9,0-77,1.5-103.6-2.1c-1.2-6.7,11.9-21.8,11.9-36.6
							c0-2-0.1-4.1-0.2-6.5c-0.4-6.6-1.4-14.5-2.5-22.6c4.7,5,11.6-16,14.6-9.9c16.4,33.2,29.4,41.9,52,41.9
							c6.7,0,12.9-0.9,19.6-2.5c-0.7,2.5-1.3,5.1-1.8,7.9c-0.1,0.6-0.2,1.3-0.3,2C214.2,392.7,226,404.4,226.3,410.2z"/>
						<path id="XMLID_58_" class="st13" d="M203.4,281c-1.1,7.8-4.2,18.2-13.5,21c-12.5,3.7-30.5-19.5-36.5-27.9
							c2.3-0.9,3.8-1.5,3.9-1.5c8.3,14.1,25.2,26.2,31.5,25.7c1.8-0.1,7-2,10.5-19.4C200.7,279.5,202.1,280.3,203.4,281z"/>
					</g>
					<g id="XMLID_50_">
						<g id="XMLID_51_">
							<g id="XMLID_52_">
								<polygon id="XMLID_57_" class="st14" points="208.5,398.5 208.4,407.2 363.4,408.1 363.8,398.3 								"/>
							</g>
							<g id="XMLID_53_">
								<polygon id="XMLID_56_" class="st14" points="430.6,321.2 427.2,317.7 314.3,316.9 257.6,398.8 260.6,401.2 								"/>
								<polygon id="XMLID_55_" class="st15" points="316.5,320 260.6,401.2 367.3,401.7 430.6,321.2 								"/>
							</g>
						</g>
						<ellipse id="XMLID_54_" class="st16" cx="343.4" cy="365.6" rx="12.4" ry="6.2"/>
					</g>
					<g id="XMLID_114_">
						<g id="XMLID_115_">
							<path id="XMLID_116_" class="st17" d="M210.8,239.7c1.8-9.4,8.2-16.2,14.5-15c6.2,1.2,9.9,9.8,8.1,19.2
								c-1.8,9.4-8.2,16.2-14.5,15C212.7,257.8,209.1,249.2,210.8,239.7z"/>
						</g>
						<path id="XMLID_117_" class="st15" d="M233.4,214.3c-1.2,8.2-4.8,17.3-10.2,27.3c-1.9-8.2-3.1-18.2-4.7-28.2
							c-1.7-10-3.8-20-7.6-28.2c-0.8-1.8-1.8-3.5-2.7-5.1c2.2-0.2,4.4,0,6.6,0.6c3.3,0.9,6.4,2.6,9,4.9c4.2,3.8,7.1,8.9,8.8,14.3
							C233.9,204.4,234.1,209.2,233.4,214.3z"/>
						<g id="XMLID_118_">
							<path id="XMLID_119_" class="st10" d="M227.1,222.8c-0.1,1.6-0.2,3.3-0.3,4.9c-2.3,26.6-13.4,44.9-30.5,44.9
								c-24.1,0-39.8-27.1-39.8-53.6c0-26.1,16-45.1,34.8-42.9c10.8,1.2,18.7,4.8,24.3,10.1c3.7,3.5,6.4,7.7,8.2,12.5
								c2.1,5.4,3.1,11.5,3.3,18.1c0,0,0,0,0,0.1C227.2,218.8,227.2,220.8,227.1,222.8z"/>
							<path id="XMLID_120_" class="st7" d="M227.1,222.8c-0.7-2.6-1.8-5.1-3.3-7.3c-14.2,7.4-31.2,10.3-47.3,7.6
								c-3.1,2.6-6.1,5.1-9.1,7.6c0.1-12.1,0.2-20.3,4.9-26.1c4.4-5.5,11.8-7.6,18.8-8.5c7.9-1,15.9-1,23.8,0.1
								c3,0.4,6.1,1.1,8.8,2.6c2.1,5.4,3.1,11.5,3.3,18.1c0,0,0,0,0,0.1C227.2,218.8,227.2,220.8,227.1,222.8z"/>
						</g>
						<path id="XMLID_121_" class="st15" d="M230.6,206.4c-3.3,2.8-7.5,5.1-12.1,7c-13.3,5.4-30.5,7.1-43.9,6.5
							c-6.6,14.5-9.3,19.7-11,32.4c-6.4-6.1-11.7-17.1-13.3-25.8c-1.5-8.7-1.4-17.8,1-26.3c3.8-13.4,13.4-20.6,20.1-24.1
							c1.7-0.9,3.2-1.5,4.3-2c8.5-3.3,18.1-3,26.8-0.3c4.8,1.5,8.8,4,12.1,7.1c6.8,6.1,11,14.5,13.7,20.7
							C229.3,203.3,230,205,230.6,206.4z"/>
						<path id="XMLID_122_" class="st18" d="M233.4,214.3c-0.6-2.9-1.4-5.7-2.5-8.4c-0.6-1.5-1.4-3-2.4-4.5
							c-3-4.8-7.4-8.7-12.8-10.4c-1.5-2.1-3.1-4.1-4.8-5.8c-6.1-6.1-13.1-9.7-20.7-10.9c-6.3-1-12.8-0.4-18.8,1.6
							c1.7-0.9,3.2-1.5,4.3-2c8.5-3.3,18.1-3,26.8-0.3c4.8,1.5,8.8,4,12.1,7.1c3.3,0.9,6.4,2.6,9,4.9c4.2,3.8,7.1,8.9,8.8,14.3
							C233.9,204.4,234.1,209.2,233.4,214.3z"/>
						<g id="XMLID_123_">
							<g id="XMLID_124_">
								<path id="XMLID_125_" class="st19" d="M182.2,230.6c4.5-2.6,9.1-3.7,15.6-1.3"/>
								<path id="XMLID_126_" class="st19" d="M212.8,230.4c3.8-2.9,9.5-3.1,12.4,0"/>
								<path id="XMLID_127_" class="st20" d="M208.2,245c0.4,2,0.2,6.5-0.8,8.5"/>
								<ellipse id="XMLID_128_" class="st21" cx="193.1" cy="243.4" rx="1.8" ry="2.9"/>
								<ellipse id="XMLID_129_" class="st21" cx="217.1" cy="242.1" rx="1.8" ry="2.9"/>
							</g>
							<g id="XMLID_130_">
								<path id="XMLID_131_" class="st22" d="M205.9,257.4c0,0-0.4,0.7-1.1,1.6c-1.1,1.5-2.9,3.5-5.4,4.2h0
									c-1.1,0.3-2.2,0.5-3.5,0.2c-3.8-0.7-4.8-4.1-4.9-6.8c0-0.5,0-1,0-1.4c0-1.1,0.1-1.8,0.1-1.8
									C197.1,256.8,205.9,257.4,205.9,257.4z"/>
								<path id="XMLID_132_" class="st4" d="M205.9,257.4c0,0-0.4,0.7-1.1,1.6c-3.1,0-9.3-1.6-13.9-3.8c0-1.1,0.1-1.8,0.1-1.8
									C197.1,256.8,205.9,257.4,205.9,257.4z"/>
								<path id="XMLID_133_" class="st23" d="M199.4,263.3c-1.1,0.3-2.2,0.5-3.5,0.2c-3.8-0.7-4.8-4.1-4.9-6.8c1.8,0.2,3.6,0.9,5,2
									C197.6,259.9,198.7,261.5,199.4,263.3z"/>
							</g>
						</g>
						<g id="XMLID_134_">
							<path id="XMLID_135_" class="st24" d="M163.6,226c0,0-0.2-12.5,5-24.9c6.5-15.6,19.8-22.2,32.7-22.6
								c15.5-0.6,25.2,9.9,25.2,9.9s-5.1-8.9-15-11.5c-6.5-1.7-16.4-1.9-24.3,1.3c-8.2,3.3-18.3,12.5-22,22.2
								c-3.7,9.7-5.5,24.8-5.5,24.8L163.6,226z"/>
							<g id="XMLID_136_">
								
									<ellipse id="XMLID_137_" transform="matrix(0.9946 -0.1034 0.1034 0.9946 -23.9784 17.9867)" class="st17" cx="161.5" cy="240.3" rx="12.1" ry="18.3"/>
								<path id="XMLID_138_" class="st24" d="M156.2,227.9c4.3-0.6,8.7,4.9,9.8,12.5c1.1,7.5-1.4,14.2-5.7,14.8
									c-4.3,0.6-8.7-4.9-9.8-12.5C149.4,235.2,151.9,228.6,156.2,227.9z"/>
							</g>
							<g id="XMLID_139_">
								<ellipse id="XMLID_140_" class="st25" cx="201.4" cy="268.9" rx="6.4" ry="4"/>
								<path id="XMLID_141_" class="st26" d="M169,255.5c0,0,9.5,12.2,25.9,13.4"/>
							</g>
						</g>
					</g>
					<g id="XMLID_142_">
						<g id="XMLID_143_">
							<g id="XMLID_144_">
								<g id="XMLID_145_">
									<path id="XMLID_146_" class="st10" d="M208.4,375.4l-0.6,16c0,0-57.8,17.3-67.4,11.9c-4.7-2.7-9-17.4-12.3-31.8
										c-3.4-15.1-5.6-29.8-5.6-29.8l33.9-6.6c0,0,0,20.7,1.2,32.6c0.4,4.5,1,7.7,1.8,8.2C162.4,377.7,208.4,375.4,208.4,375.4z"
										/>
									<path id="XMLID_147_" class="st7" d="M157.7,367.5c-6.2,2-18.1,5.1-29.5,3.9c-3.4-15.1-5.6-29.8-5.6-29.8l33.9-6.6
										C156.5,334.9,156.5,355.6,157.7,367.5z"/>
								</g>
								<g id="XMLID_148_">
									<path id="XMLID_149_" class="st10" d="M206.8,375.5c8.6-1.8,23.2-6.3,29.2-7.8c4.3-1.1,15.5,4.7,18.4,10.1
										c1.3,2.4,2.5,15.9-2,14.5c-2.2-0.7-1.9-6.5-2.6-8.8c-0.6-1.9-2.4-3.8-5.2-5.4c1.9,4.6,1.8,8.6,1.6,13.6
										c0,1.1-0.1,2.3-0.6,3.2c-0.5,1-1.7,1.6-2.7,1.2c-1-0.4-1.4-1.7-1.6-2.8c-0.8-3.8-1.6-7.7-1.9-12c0.1,4.3,0,8.5-0.3,12.8
										c-0.2,3.3-1.8,5-3.8,4.5c-0.9-0.3-1.3-1.1-1.6-2.1c-0.6,2.1-2.1,4.4-4,3.5c-1.2-0.5-1.9-4.8-1.7-9.2
										c-3.7,2.3-7.9,3.3-12.8,3.5c-4.3,0.2-8.8-0.6-11.4-3.6C204.1,386.2,205.6,379.4,206.8,375.5z"/>
									<path id="XMLID_150_" class="st27" d="M233.8,395.8c0.3-3.5,0-7-0.9-10.3"/>
								</g>
							</g>
							<path id="XMLID_151_" class="st11" d="M152.7,301.4c-2.5-6.9-11.5-21.1-11.5-21.1s-13.8,5.7-18.6,15.4
								c-8.3,16.4-4.1,63.6-4.1,63.6c11.1,4.7,33.5,4.7,43,3.4C161.5,362.7,157.6,315.2,152.7,301.4z"/>
						</g>
						<path id="XMLID_152_" class="st28" d="M154.4,304.3c3.8,18,5.8,34.7,6.4,51.1"/>
					</g>
				</g>
				<rect id="XMLID_3_" x="54.5" y="405.3" class="st15" width="394.3" height="9.9"/>
			</g>
		</g>
	</g>
</g>
</svg>
